<?xml version="1.0"?>
<svg width="32" height="32" xmlns="http://www.w3.org/2000/svg" xmlns:svg="http://www.w3.org/2000/svg">
 <g class="layer">
  <title>Layer 1</title>
  <path d="m7,5l0,23l1.59,-1.19l7.41,-5.56l7.41,5.56l1.59,1.19l0,-23l-18,0zm2,2l14,0l0,17l-6.41,-4.81l-0.59,-0.44l-0.59,0.44l-6.41,4.81l0,-17z" fill="#000000" id="svg_1" stroke="#000000"/>
  <path d="m7.91,5.94c0,0.89 -0.03,1.81 -0.13,2.64c-0.11,0.92 -0.13,1.84 -0.13,2.7c0,0.87 0,1.72 0,2.64c0,0.88 0.13,1.76 0.13,2.67c0,0.89 0,1.76 0,2.67c0,0.89 0.13,1.75 0.13,2.64c0,0.89 -0.72,2.14 0,2.67c0.44,0.32 1.16,-0.69 1.99,-1.09c0.77,-0.38 1.65,-0.54 2.3,-0.93c0.68,-0.41 1.42,-0.77 2.16,-1.18c0.76,-0.42 1.4,-1.29 2.15,-0.97c0.82,0.34 1.39,1.04 2.14,1.48c0.76,0.44 1.47,0.92 2.23,1.39c0.75,0.47 1.46,1.21 2.31,1.14c0.37,-0.03 0.3,-1.08 0.31,-1.92c0.01,-0.95 0.35,-1.76 0.39,-2.66c0.04,-0.86 0.13,-1.73 0.13,-2.64c0,-0.89 0.06,-1.73 0,-2.62c-0.06,-0.89 -0.26,-1.78 -0.4,-2.61c-0.14,-0.9 -0.12,-1.8 -0.12,-2.67c0,-0.91 0.13,-1.75 0.13,-2.61c0,-0.91 -0.47,-1.34 -1.35,-1.24c-0.79,0.09 -1.72,0.27 -2.52,0.41c-0.93,0.16 -1.83,0.3 -2.71,0.37c-0.9,0.08 -1.83,0.11 -2.55,0.14c-0.98,0.04 -1.88,0.12 -2.8,0.12l-0.85,0l-0.92,0l-0.89,0" fill="#000000" id="svg_4" stroke="#000000"/>
 </g>
</svg>