<svg width="48" height="48" xmlns="http://www.w3.org/2000/svg">
 <g>
  <title>Layer 1</title>
  <path fill="#a8a8a8" stroke="url(#gradbox_stroke)" id="svg_1" d="m24,4c-11.02771,0 -20,8.97229 -20,20c0,3.27532 0.86271,6.33485 2.26172,9.06445l-2.16797,7.76368c-0.50495,1.8034 1.27818,3.58448 3.08203,3.08007l7.76758,-2.16797c2.72769,1.39713 5.7836,2.25977 9.05664,2.25977c11.02771,0 20,-8.97229 20,-20c0,-11.02771 -8.97229,-20 -20,-20zm0,3c9.40629,0 17,7.59371 17,17c0,9.40629 -7.59371,17 -17,17c-3.00297,0 -5.80774,-0.78172 -8.25586,-2.14648a1.50015,1.50015 0 0 0 -1.13476,-0.13477l-7.38672,2.0625l2.0625,-7.38281a1.50015,1.50015 0 0 0 -0.13477,-1.13477c-1.36674,-2.45019 -2.15039,-5.25915 -2.15039,-8.26367c0,-9.40629 7.59371,-17 17,-17z"/>
 </g>

</svg>