<svg width="24" height="24" xmlns="http://www.w3.org/2000/svg" class="size-6" stroke="currentColor" stroke-width="1.5" fill="none">

 <g>
  <title>Layer 1</title>
  <path stroke="#ff0000" id="svg_1" d="m21,8.25c0,-2.485 -2.099,-4.5 -4.688,-4.5c-1.935,0 -3.597,1.126 -4.312,2.733c-0.715,-1.607 -2.377,-2.733 -4.313,-2.733c-2.587,0 -4.687,2.015 -4.687,4.5c0,7.22 9,12 9,12s9,-4.78 9,-12z" stroke-linejoin="round" stroke-linecap="round"/>
  <path fill="none" d="m11.9375,7.5625c-0.25,-0.1875 -0.375,-0.3125 -0.5625,-0.4375c-0.375,-0.25 -0.51463,-0.34331 -0.8125,-0.5c-0.19944,-0.10491 -0.38325,-0.23471 -0.625,-0.375c-0.19491,-0.11311 -0.26938,-0.14609 -0.4375,-0.25c-0.07519,-0.04647 -0.08668,-0.11985 -0.25,-0.1875c-0.11549,-0.04784 -0.12768,-0.04439 -0.1875,-0.0625c-0.21568,-0.0653 -0.25476,-0.10108 -0.3125,-0.125c-0.08166,-0.03382 -0.14331,-0.08081 -0.1875,-0.125c-0.04419,-0.04419 0,-0.125 0,-0.1875c0,-0.0625 0.125,-0.125 0.5,-0.125c0.1875,0 0.59195,0.15367 1,0.25c0.06083,0.01436 0.42295,-0.05896 0.625,0.1875c0.03962,0.04833 0.22182,0.1847 0.4375,0.25c0.11964,0.03622 0.45142,0.10775 0.6875,0.3125c0.06677,0.05791 0.12912,0.05348 0,0c-0.1826,-0.07563 -0.68524,-0.31974 -0.875,-0.375c-0.49483,-0.1441 -0.87594,-0.23473 -1,-0.25c-0.25576,-0.03149 -0.42991,-0.15584 -0.625,-0.1875c-0.12339,-0.02002 -0.3764,-0.10209 -0.5625,-0.125c-0.25576,-0.03149 -0.375,-0.125 -0.5,-0.125c-0.125,0 -0.17648,-0.09289 -0.3125,-0.125c-0.06083,-0.01436 -0.17648,-0.03039 -0.3125,-0.0625c-0.06083,-0.01436 -0.08081,-0.01831 -0.125,-0.0625c-0.04419,-0.04419 -0.125,0 -0.1875,0c-0.0625,0 -0.125,0 -0.1875,0c-0.125,0 -0.16834,0.02868 -0.25,0.0625c-0.05774,0.02392 -0.1158,0.01082 -0.1875,0.0625c-0.11337,0.08172 -0.1875,0.0625 -0.25,0.125c-0.0625,0.0625 -0.07413,0.10578 -0.1875,0.1875c-0.0717,0.05168 -0.10584,0.09118 -0.1875,0.125c-0.05774,0.02392 -0.08081,0.01831 -0.125,0.0625c-0.04419,0.04419 -0.1158,0.07332 -0.1875,0.125c-0.11337,0.08172 -0.14331,0.08081 -0.1875,0.125c-0.04419,0.04419 -0.19226,0.03858 -0.25,0.0625c-0.08166,0.03382 -0.12976,0.10108 -0.1875,0.125c-0.16332,0.06765 -0.23078,0.19913 -0.3125,0.3125c-0.05168,0.0717 -0.10108,0.06726 -0.125,0.125c-0.03382,0.08166 -0.09118,0.10584 -0.125,0.1875c-0.02392,0.05774 -0.08081,0.14331 -0.125,0.1875c-0.04419,0.04419 -0.03858,0.06726 -0.0625,0.125c-0.03382,0.08166 -0.09118,0.10584 -0.125,0.1875c-0.07175,0.17323 -0.02868,0.23084 -0.0625,0.3125c-0.02392,0.05774 0,0.1875 0,0.375c0,0.0625 0,0.1875 0,0.3125c0,0.125 0.06135,0.607 0.125,0.9375c0.01182,0.06137 0,0.25 0.0625,0.375c0.0625,0.125 0.12328,0.35297 0.1875,0.625c0.01436,0.06083 0.02868,0.23084 0.0625,0.3125c0.02392,0.05774 -0.00197,0.27575 0.125,0.5c0.04355,0.07692 0.02407,0.27325 0.1875,0.5c0.05168,0.0717 0.09809,0.25831 0.1875,0.5c0.04849,0.13107 0.21789,0.36398 0.25,0.5c0.01436,0.06083 0.16933,0.165 0.375,0.625c0.08067,0.18043 0.24485,0.27418 0.3125,0.4375c0.04784,0.11549 0.21368,0.20354 0.3125,0.5c0.03953,0.11859 0.21789,0.42648 0.25,0.5625c0.01436,0.06083 0.10578,0.26163 0.1875,0.375c0.05168,0.0717 0.08868,0.21368 0.1875,0.3125c0.09882,0.09882 0.10659,0.20914 0.25,0.3125c0.11337,0.08172 0.19226,0.22608 0.25,0.25c0.08166,0.03382 0.1875,0.25 0.3125,0.375c0.0625,0.0625 0.30735,0.21168 0.375,0.375c0.02392,0.05774 0.17309,0.08694 0.3125,0.3125c0.10391,0.16813 0.19913,0.29328 0.3125,0.375c0.0717,0.05168 0.1875,0.1875 0.25,0.25c0.125,0.125 0.23903,0.06862 0.3125,0.1875c0.03286,0.05317 0.19913,0.10578 0.3125,0.1875c0.0717,0.05168 0.28712,0.28206 0.4375,0.375c0.16812,0.10391 0.29334,0.15368 0.375,0.1875c0.05774,0.02392 0.0625,0.0625 0.125,0.0625c0.125,0 0.25,0.0625 0.3125,0.125c0.0625,0.0625 0.14331,0.01831 0.1875,0.0625c0.04419,0.04419 0.12976,0.03858 0.1875,0.0625c0.08166,0.03382 0.125,0.125 0.1875,0.125c0.0625,0 0.125,0.0625 0.1875,0.0625c0.0625,0 0.08081,0.01831 0.125,0.0625c0.04419,0.04419 0.1875,0 0.25,0c0.0625,0 0.125,0 0.1875,0c0.125,0 0.19018,0.01811 0.25,0c0.21568,-0.0653 0.26323,-0.16963 0.4375,-0.3125c0.06835,-0.05604 0.20043,-0.11329 0.3125,-0.25c0.14287,-0.17427 0.23213,-0.26323 0.375,-0.4375c0.11207,-0.13671 0.23077,-0.15068 0.4375,-0.4375c0.08172,-0.11337 0.10659,-0.20914 0.25,-0.3125c0.11337,-0.08172 0.21618,-0.04334 0.25,-0.125c0.02392,-0.05774 0.16909,-0.14664 0.3125,-0.25c0.11337,-0.08172 0.18917,-0.11064 0.25,-0.125c0.13602,-0.03211 0.30509,-0.13689 0.5,-0.25c0.12087,-0.07015 0.1875,-0.0625 0.3125,-0.1875c0.125,-0.125 0.25,-0.1875 0.375,-0.3125c0.0625,-0.0625 0.16358,-0.12976 0.1875,-0.1875c0.06765,-0.16332 0.125,-0.1875 0.25,-0.3125c0.1875,-0.1875 0.23078,-0.26163 0.3125,-0.375c0.05168,-0.0717 0.07183,-0.15464 0.125,-0.1875c0.11888,-0.07347 0.15099,-0.17257 0.25,-0.375c0.08683,-0.17755 0.13966,-0.25951 0.1875,-0.375c0.06765,-0.16332 0.23078,-0.19913 0.3125,-0.3125c0.10336,-0.14341 0.23829,-0.26293 0.375,-0.375c0.17427,-0.14287 0.35086,-0.20606 0.5,-0.375c0.09249,-0.10477 0.125,-0.125 0.1875,-0.25c0.0625,-0.125 0.05236,-0.23986 0.25,-0.4375c0.09882,-0.09882 0.19939,-0.24259 0.3125,-0.4375c0.07015,-0.12087 0.15368,-0.16834 0.1875,-0.25c0.04784,-0.11549 -0.01922,-0.19913 0.0625,-0.3125c0.05168,-0.0717 0.09118,-0.10584 0.125,-0.1875c0.02392,-0.05774 0.02868,-0.16834 0.0625,-0.25c0.04784,-0.11549 -0.08839,-0.22411 0,-0.3125c0.04419,-0.04419 0.0625,-0.125 0.0625,-0.3125c0,-0.0625 0,-0.1875 0,-0.375c0,-0.0625 0,-0.25 0,-0.375c0,-0.125 0,-0.1875 0,-0.3125c0,-0.0625 0,-0.125 0,-0.25c0,-0.125 0,-0.1875 0,-0.25c0,-0.125 0.0625,-0.125 0.0625,-0.1875c0,-0.0625 0,-0.125 0,-0.1875c0,-0.0625 -0.02872,-0.12834 0,-0.25c0.03211,-0.13602 0.0625,-0.1875 0.0625,-0.3125c0,-0.125 -0.0625,-0.1875 -0.125,-0.25c-0.0625,-0.0625 -0.10584,-0.21618 -0.1875,-0.25c-0.05774,-0.02392 -0.01831,-0.14331 -0.0625,-0.1875c-0.04419,-0.04419 -0.03858,-0.06726 -0.0625,-0.125c-0.03382,-0.08166 -0.08081,-0.08081 -0.125,-0.125c-0.04419,-0.04419 -0.01831,-0.14331 -0.0625,-0.1875c-0.04419,-0.04419 -0.01831,-0.08081 -0.0625,-0.125c-0.04419,-0.04419 -0.0625,-0.125 -0.0625,-0.1875c0,-0.0625 0,-0.125 -0.0625,-0.1875c-0.0625,-0.0625 -0.125,-0.0625 -0.1875,-0.125c-0.0625,-0.0625 -0.12251,-0.06775 -0.25,-0.125c-0.30704,-0.13788 -0.5049,-0.17437 -0.6875,-0.25c-0.12912,-0.05348 -0.14331,-0.08081 -0.1875,-0.125c-0.04419,-0.04419 -0.12976,0.02392 -0.1875,0c-0.08166,-0.03382 -0.14331,-0.08081 -0.1875,-0.125c-0.04419,-0.04419 -0.0625,-0.0625 -0.125,-0.0625c-0.0625,0 -0.125,-0.0625 -0.1875,-0.0625c-0.0625,0 -0.10584,-0.02868 -0.1875,-0.0625c-0.05774,-0.02392 -0.1875,0 -0.25,0c-0.0625,0 -0.11741,-0.03084 -0.3125,-0.0625c-0.18508,-0.03003 -0.3125,0 -0.5625,0c-0.25,0 -0.375,0 -0.5,0c-0.0625,0 -0.125,0 -0.1875,0c-0.0625,0 -0.17648,0.03039 -0.3125,0.0625c-0.06083,0.01436 -0.13495,-0.02433 -0.3125,0.0625c-0.20243,0.09901 -0.28152,0.06472 -0.5625,0.25c-0.07379,0.04866 -0.09501,0.08273 -0.1875,0.1875c-0.14914,0.16894 -0.1875,0.1875 -0.3125,0.3125c-0.0625,0.0625 -0.07332,0.1158 -0.125,0.1875c-0.08172,0.11337 -0.10108,0.19226 -0.125,0.25c-0.03382,0.08166 -0.11985,0.08668 -0.1875,0.25c-0.02392,0.05774 0.02589,0.09911 -0.0625,0.1875c-0.04419,0.04419 -0.15368,0.04334 -0.1875,0.125c-0.02392,0.05774 -0.01831,0.14331 -0.0625,0.1875c-0.04419,0.04419 -0.15118,0.08868 -0.25,0.1875c-0.09882,0.09882 -0.10578,0.13663 -0.1875,0.25c-0.05168,0.0717 -0.125,0.125 -0.1875,0.1875c-0.0625,0.0625 -0.125,0.125 -0.125,0.1875l-0.125,0.125l0,0.0625" id="svg_3" stroke="#ff0000"/>
  <path fill="none" d="m11.4375,8.6875c-0.0625,0 -0.15083,-0.03052 -0.3125,-0.1875c-0.42301,-0.41075 -0.70585,-0.40458 -1.0625,-0.625c-0.26583,-0.16429 -0.25,-0.25 -0.375,-0.4375c-0.125,-0.1875 -0.14304,-0.24177 -0.25,-0.5c-0.07563,-0.1826 -0.11575,-0.26427 -0.1875,-0.4375c-0.06765,-0.16332 -0.25476,-0.22608 -0.3125,-0.25c-0.08166,-0.03382 -0.1875,-0.125 -0.3125,-0.125c-0.0625,0 -0.17648,-0.09289 -0.3125,-0.125c-0.06083,-0.01436 -0.17648,-0.03039 -0.3125,-0.0625c-0.06083,-0.01436 -0.3125,-0.0625 -0.5,-0.0625c-0.1875,0 -0.3125,0 -0.5,0c-0.0625,0 -0.25,0 -0.375,0.0625c-0.125,0.0625 -0.25,0.1875 -0.375,0.3125c-0.0625,0.0625 -0.23213,0.26323 -0.375,0.4375c-0.05604,0.06835 -0.10578,0.19913 -0.1875,0.3125c-0.05168,0.0717 -0.09289,0.11398 -0.125,0.25c-0.01436,0.06083 -0.09289,0.17648 -0.125,0.3125c-0.02872,0.12166 -0.125,0.3125 -0.25,0.5625c-0.0625,0.125 -0.11187,0.3799 -0.1875,0.5625c-0.05348,0.12912 -0.0625,0.375 -0.0625,0.8125c0,0.1875 0.3125,0.75 0.5,1.3125c0.0625,0.1875 0.32871,0.61066 0.4375,0.75c0.22428,0.28725 0.25,0.5 0.4375,0.6875c0.125,0.125 0.38691,0.48624 0.75,0.8125c0.16762,0.15062 0.40068,0.48077 0.6875,0.6875c0.11337,0.08172 0.3893,0.2331 0.6875,0.5c0.13172,0.1179 0.27164,0.16909 0.375,0.3125c0.08172,0.11337 0.21368,0.21368 0.3125,0.3125c0.09882,0.09882 0.16963,0.32573 0.3125,0.5c0.05604,0.06835 0.1875,0.25 0.25,0.3125c0.0625,0.0625 0.125,0.1875 0.1875,0.25c0.0625,0.0625 0.05665,0.24354 0.125,0.1875c0.17427,-0.14287 -0.26809,-0.52572 -0.5,-0.875c-0.31874,-0.48004 -0.875,-1 -1,-1.1875c-0.125,-0.1875 -0.48727,-0.57258 -0.6875,-0.8125c-0.08955,-0.1073 -0.19932,-0.24887 -0.1875,-0.1875c0.06365,0.3305 0.18974,0.64882 0.4375,1.1875c0.15228,0.33109 0.28858,0.56726 0.3125,0.625c0.03382,0.08166 0.14509,0.23806 0.25,0.4375c0.15669,0.29787 0.27164,0.66909 0.375,0.8125c0.16343,0.22675 0.1875,0.375 0.4375,0.625c0.125,0.125 0.21714,0.19683 0.25,0.25c0.07347,0.11888 0.17991,0.09334 0.375,0.125c0.18508,0.03004 0.30674,0.09351 0.5625,0.125c0.1861,0.02291 0.51831,0.04419 0.5625,0c0.08839,-0.08839 0,-0.3125 0,-0.8125c0,-0.1875 0,-0.3125 0,-0.625c0,-0.125 0.01787,-0.26323 -0.125,-0.4375c-0.11207,-0.13671 -0.28119,-0.19042 -0.3125,0.3125c-0.02719,0.43666 -0.14351,0.71605 0,1.0625c0.06765,0.16332 0.08106,0.22586 0.25,0.375c0.10477,0.09249 0.1875,0.0625 0.25,0c0.1875,-0.1875 0.3722,-0.33799 0.625,-0.8125c0.25108,-0.47129 0.18917,-0.73564 0.25,-0.75c0.13602,-0.03211 0.07568,0.43896 0,1.0625c-0.05325,0.43872 -0.0625,0.5625 -0.0625,0.8125c0,0.0625 0,0.125 0.3125,0.125c0.3125,0 0.7875,-0.25592 1,-0.4375c0.40875,-0.34927 0.61985,-0.77418 0.6875,-0.9375c0.04784,-0.11548 0.02872,-0.18416 0,-0.0625c-0.03211,0.13601 -0.26163,0.29328 -0.375,0.375c-0.35852,0.25841 -0.48169,0.51831 -0.4375,0.5625c0.04419,0.04419 0.68888,-0.43579 1,-0.6875c0.69058,-0.55871 1.07734,-0.9836 1.5625,-1.4375c0.58091,-0.54347 0.875,-0.75 1.3125,-1.1875c0.25,-0.25 0.29463,-0.38823 0.4375,-0.5625c0.22415,-0.27342 0.35882,-0.42043 0.5,-0.875c0.09453,-0.30435 0.11212,-0.44296 0.25,-0.75c0.17175,-0.38247 0.25992,-0.55643 0.5625,-1.0625c0.25858,-0.43248 0.41747,-0.53569 0.5625,-0.8125c0.09173,-0.17507 0.13402,-0.24588 0.1875,-0.375c0.07563,-0.1826 0.09118,-0.35584 0.125,-0.4375c0.02392,-0.05774 0,-0.125 0,-0.25c0,-0.0625 0.01466,-0.13451 0.0625,-0.25c0.03382,-0.08166 0.0625,-0.1875 0.0625,-0.25c0,-0.0625 0,-0.1875 0,-0.25c0,-0.0625 -0.02868,-0.16834 -0.0625,-0.25c-0.02392,-0.05774 -0.13663,-0.16828 -0.25,-0.25c-0.0717,-0.05168 -0.1875,-0.125 -0.3125,-0.1875c-0.125,-0.0625 -0.29334,-0.15368 -0.375,-0.1875c-0.11548,-0.04784 -0.32413,-0.10578 -0.4375,-0.1875c-0.0717,-0.05168 -0.22569,-0.058 -0.375,-0.1875c-0.10558,-0.09157 -0.26937,-0.08359 -0.4375,-0.1875c-0.07519,-0.04647 -0.33187,-0.02109 -0.5,-0.125c-0.07519,-0.04647 -0.3125,-0.0625 -0.5,-0.0625c-0.0625,0 -0.25242,-0.03003 -0.4375,0c-0.19509,0.03166 -0.357,0.12385 -0.6875,0.1875c-0.18412,0.03546 -0.72239,0.28246 -0.9375,0.4375c-0.11337,0.08172 -0.29409,0.27164 -0.4375,0.375c-0.11337,0.08172 -0.19974,0.35305 -0.4375,0.5c-0.05317,0.03286 -0.26189,0.1176 -0.375,0.3125c-0.07015,0.12087 -0.19939,0.18009 -0.3125,0.375c-0.07015,0.12087 -0.14664,0.16909 -0.25,0.3125c-0.08172,0.11337 -0.18235,0.08668 -0.25,0.25c-0.02392,0.05774 -0.16161,0.15089 -0.25,0.0625c-0.04419,-0.04419 -0.31663,-0.17985 -0.4375,-0.25c-0.19491,-0.11311 -0.375,-0.3125 -0.4375,-0.375c-0.125,-0.125 -0.25918,-0.30395 -0.375,-0.4375c-0.20475,-0.23608 -0.43323,-0.44209 -0.5,-0.5c-0.23608,-0.20475 -0.35584,-0.27868 -0.4375,-0.3125c-0.11549,-0.04784 -0.625,-0.0625 -0.875,-0.0625c-0.4375,0 -0.75,0 -0.875,0c-0.3125,0 -0.6875,0 -0.875,0c-0.4375,0 -0.625,0 -0.75,0c-0.25,0 -0.33081,-0.04419 -0.375,0c-0.04419,0.04419 -0.04463,0.13823 -0.1875,0.3125c-0.11207,0.13671 -0.24953,0.30097 -0.3125,0.8125c-0.07636,0.62032 0.06754,1.08092 0.4375,1.5c0.14914,0.16894 0.20581,0.14331 0.25,0.1875c0.04419,0.04419 0.32103,-0.18061 0.875,-0.875c0.44441,-0.55706 0.67625,-0.93851 1.0625,-1.3125c0.16189,-0.15675 0.25,-0.1875 0.25,-0.25c0,-0.125 -0.34309,-0.05487 -0.9375,0.3125c-0.26583,0.16429 -0.93472,0.89786 -1.0625,1.5c-0.0519,0.24455 0,0.5 0,0.625c0,0.0625 0.06977,0.17669 0.25,0.125c0.56678,-0.16255 1.21752,-0.91473 1.3125,-1.5c0.03003,-0.18508 0,-0.375 0,-0.6875c0,-0.125 -0.06726,-0.21142 -0.125,-0.1875c-0.24498,0.10147 -0.44001,0.56158 -0.875,1.75c-0.25145,0.68697 -0.4375,1.625 -0.4375,2c0,0.125 0.2935,0.30728 1.125,-0.0625c0.53875,-0.23959 1.27743,-0.78366 1.4375,-1.4375c0.14936,-0.6101 0.13495,-0.88573 0.0625,-1.125c-0.0653,-0.21568 -0.06862,-0.30153 -0.1875,-0.375c-0.05317,-0.03286 -0.1875,0.0625 -0.5,0.375c-0.3125,0.3125 -0.96045,1.22572 -1.1875,2.1875c-0.10154,0.43012 -0.18109,1.02297 -0.0625,1.0625c0.59293,0.19764 0.81948,-0.92582 1.625,-1.75c0.62088,-0.63527 0.7186,-0.99536 0.75,-1.3125c0.03695,-0.37317 -0.02426,-0.45143 -0.375,0.1875c-0.269,0.49004 -0.93148,1.81366 -1.1875,3.125c-0.06107,0.31278 -0.12024,0.91358 -0.0625,0.9375c0.08166,0.03382 0.5625,-0.4375 1.5625,-1.4375c1.0625,-1.0625 1.4668,-1.53374 1.5625,-2c0.05027,-0.24489 0.06145,-0.36359 0,-0.375c-0.8559,-0.15892 -0.90068,2.05458 -1.0625,2.625c-0.29789,1.05008 -0.37333,1.54814 -0.3125,1.5625c0.40805,0.09633 0.74939,-1.73689 0.8125,-2.1875c0.06935,-0.49517 0.02691,-1.07081 -0.0625,-1.3125c-0.14546,-0.39322 -0.17223,-0.49906 -0.1875,-0.375c-0.06297,0.51153 -0.35268,1.12943 -0.5,1.8125c-0.27164,1.25951 -0.4375,1.9375 -0.4375,2.125c0,0.125 -0.01031,0.05542 0.25,-0.3125c0.36098,-0.51021 1.29326,-1.73025 1.6875,-2.75c0.11492,-0.29725 0.25,-0.625 0.125,-0.625c-0.0625,0 -0.25985,0.72582 -0.75,2.3125c-0.51454,1.66563 -0.53124,2.37377 -0.5625,3.5625c-0.01479,0.56231 -0.0625,0.75 0,0.75c0.0625,0 -0.01414,-0.1258 0,-0.25c0.09436,-0.8285 0.32949,-1.81289 0.3125,-2.1875c-0.03128,-0.68963 -0.29328,-1.07413 -0.375,-1.1875c-0.15504,-0.21511 -0.1875,-0.375 -0.25,-0.375c-0.1875,0 0,0.6875 0,0.9375c0,0.6875 -0.25,1.125 0,1.125c0.0625,0 0.15901,-0.92918 0.25,-1.375c0.10076,-0.49371 0.0625,-0.8125 0.0625,-1c0,-0.1875 -0.07126,-0.2819 -0.125,-0.25c-0.67341,0.39976 -0.5625,1.25 -0.5625,1.5c0,0.5 -0.17323,1.05325 0,1.125c0.08166,0.03382 0.21415,-0.40523 1.0625,-1.375c0.96068,-1.09818 1.62056,-1.49112 2.0625,-2.375c0.26517,-0.53033 0.25,-0.6875 0.25,-0.9375c0,-0.0625 -0.00476,-0.14892 -0.0625,-0.125c-0.08166,0.03382 -0.42477,0.19758 -0.625,0.4375c-0.08955,0.1073 -0.05806,0.4375 -0.5,0.4375c-0.08839,0 -0.0625,-0.5 -0.0625,-0.6875c0,-0.125 -0.0625,-0.3125 0.375,-0.4375c0.4375,-0.125 1.53349,-0.57846 2.625,-0.9375c0.48958,-0.16104 1.28373,-0.4668 1.75,-0.5625c0.06122,-0.01257 0.0625,-0.0625 0.0625,-0.125c0,-0.0625 0.0625,-0.125 0.0625,-0.1875c0,-0.0625 -0.125,-0.0625 -0.1875,-0.125c-0.0625,-0.0625 -0.375,-0.0625 -0.5,-0.0625c-0.375,0 -0.4375,0 -0.5,0c-0.0625,0 -0.37704,0.05949 -0.5625,0.1875c-0.44248,0.30541 -0.84334,0.61741 -0.875,0.8125c-0.01001,0.06169 0.11923,0.20916 1.25,-0.3125c0.5354,-0.247 1.40025,-0.71322 1.6875,-0.9375c0.13934,-0.10879 0.1875,-0.125 0.25,-0.125c0.125,0 0.19832,-0.0092 0.25,0.0625c0.08172,0.11337 0.15368,0.16834 0.1875,0.25c0.02392,0.05774 0.03858,0.06726 0.0625,0.125c0.03382,0.08166 0.10206,0.51238 0.3125,0.875c0.11311,0.19491 0.11499,0.25081 0.125,0.3125c0.03166,0.19509 0.08654,0.29926 0.125,0.25c0.15859,-0.20312 -0.17066,-0.56326 -0.1875,-0.75c-0.06275,-0.69595 -0.40847,-1.09153 -0.1875,-1.3125c0.08839,-0.08839 0.4375,0 0.5,0c0.0625,0 0.125,0.125 0.125,0.3125c0,0.1875 0,0.75 0,1c0,0.5 0,0.9375 0,1c0,0.1875 -0.1331,0.30533 -0.1875,0.375c-0.22428,0.28725 -0.4321,0.75277 -0.5625,1c-0.30021,0.56916 -0.67805,1.87791 -0.875,2.5c-0.23861,0.7537 -0.44943,1.80967 -0.5625,2.3125c-0.13983,0.62185 -0.16358,1.06726 -0.1875,1.125c-0.03382,0.08166 -0.04814,0.12667 -0.0625,0.1875c-0.03211,0.13601 -0.13966,0.25952 -0.1875,0.375c-0.06765,0.16332 -0.15614,0.19138 -0.1875,-0.1875c-0.0464,-0.56058 -0.00385,-2.06296 0.125,-3.125c0.06069,-0.50022 0.23967,-1.5037 0.625,-2.5625c0.18262,-0.5018 0.52772,-1.14879 0.625,-1.5c0.03337,-0.12046 0.05325,-0.26427 0.125,-0.4375c0.03382,-0.08166 0.1875,-0.1875 0.125,-0.1875c-0.1875,0 0.04187,0.69709 -0.25,1.875c-0.32831,1.32495 -0.55196,1.79521 -1,2.4375c-0.38011,0.54491 -0.54221,0.70157 -0.9375,1.25c-0.41667,0.5781 -0.65931,0.7879 -0.875,1.125c-0.15064,0.23544 -0.14331,0.33081 -0.1875,0.375c-0.04419,0.04419 -0.0815,-0.06797 0.125,-0.75c0.45819,-1.5133 1.72249,-4.85106 2.75,-7.125c0.23019,-0.50942 0.45825,-1.13933 0.5625,-1.375c0.09117,-0.20608 0.25,-0.3125 0.1875,-0.3125c-0.1875,0 0.0625,0.5 0.0625,1.375c0,1.25 -0.0856,1.76471 -0.3125,2.3125c-0.10696,0.25823 -0.16828,0.32413 -0.25,0.4375c-0.05168,0.0717 -0.34681,0.4129 -0.5625,0.75c-0.15064,0.23544 -0.47597,0.70429 -0.875,1.25c-0.47243,0.64609 -0.84035,0.97932 -1.4375,1.8125c-0.26255,0.36633 -0.92508,1.14707 -1.125,1.6875c-0.02168,0.05862 -0.125,0.1875 -0.0625,0.1875c0.0625,0 -0.08526,-0.37864 0,-1.375c0.15682,-1.83254 0.68146,-2.8778 1.4375,-4.5c0.49605,-1.06435 0.5856,-1.57721 0.8125,-2.125c0.10696,-0.25823 0.13675,-0.31195 0.125,-0.1875c-0.12556,1.33018 -0.44405,1.9551 -1,3.625c-0.56843,1.70739 -0.84871,2.29386 -1.125,2.875c-0.14452,0.30397 -0.1875,0.5 -0.375,0.875c-0.125,0.25 -0.21869,0.37792 -0.25,-0.125c-0.04272,-0.68617 0.0173,-1.75619 0.125,-2.375c0.17675,-1.01551 0.4375,-1.8125 0.5,-2.0625c0.1875,-0.75 0.3125,-1 0.25,-1c-0.125,0 -0.3524,0.8856 -0.625,1.4375c-0.69363,1.40428 -1.5,2.4375 -1.6875,2.9375c-0.1875,0.5 -0.25764,0.68703 -0.25,0.625c0.06297,-0.51153 0.83818,-1.79483 1.5625,-2.875c0.9077,-1.35364 1.65706,-2.59962 1.75,-2.75c0.10391,-0.16812 0.19362,-0.61403 0.3125,-0.6875c0.05317,-0.03286 0.08098,0.18841 0.0625,0.375c-0.09421,0.95141 -0.53718,2.13316 -0.75,2.75c-0.50345,1.45923 -1.0625,2.8125 -1.25,3.1875c-0.1875,0.375 -0.25,0.5 -0.25,0.5625c0,0.0625 -0.02868,0.10584 -0.0625,0.1875c-0.02392,0.05774 -0.0625,0.125 -0.1875,0.25c-0.125,0.125 -0.11723,0.18726 -0.125,0.0625c-0.03131,-0.50292 -0.0625,-0.75 -0.0625,-1.3125c0,-0.3125 -0.03251,-0.44339 0.0625,-0.875c0.14028,-0.63726 0.3125,-0.9375 0.4375,-1.4375l0.125,-0.1875l0,-0.0625l0.0625,0" id="svg_4" stroke="#ff0000"/>
 </g>
</svg>